<?xml version="1.0" encoding="UTF-8" standalone="no"?>
<svg
   xmlns:dc="http://purl.org/dc/elements/1.1/"
   xmlns:cc="http://creativecommons.org/ns#"
   xmlns:rdf="http://www.w3.org/1999/02/22-rdf-syntax-ns#"
   xmlns:svg="http://www.w3.org/2000/svg"
   xmlns="http://www.w3.org/2000/svg"
   xmlns:sodipodi="http://sodipodi.sourceforge.net/DTD/sodipodi-0.dtd"
   xmlns:inkscape="http://www.inkscape.org/namespaces/inkscape"
   width="180mm"
   height="80mm"
   viewBox="0 0 180 80"
   version="1.1"
   id="svg8"
   inkscape:version="1.0.2 (e86c870879, 2021-01-15, custom)"
   sodipodi:docname="HLS WD.svg">
  <defs
     id="defs2" />
  <sodipodi:namedview
     id="base"
     pagecolor="#ffffff"
     bordercolor="#666666"
     borderopacity="1.0"
     inkscape:pageopacity="0.0"
     inkscape:pageshadow="2"
     inkscape:zoom="0.35"
     inkscape:cx="177.81254"
     inkscape:cy="152.11402"
     inkscape:document-units="mm"
     inkscape:current-layer="layer1"
     inkscape:document-rotation="0"
     showgrid="false"
     showguides="true"
     inkscape:guide-bbox="true"
     inkscape:window-width="1366"
     inkscape:window-height="728"
     inkscape:window-x="0"
     inkscape:window-y="0"
     inkscape:window-maximized="0" />
  <metadata
     id="metadata5">
    <rdf:RDF>
      <cc:Work
         rdf:about="">
        <dc:format>image/svg+xml</dc:format>
        <dc:type
           rdf:resource="http://purl.org/dc/dcmitype/StillImage" />
        <dc:title />
      </cc:Work>
    </rdf:RDF>
  </metadata>
  <g
     inkscape:label="Layer 1"
     inkscape:groupmode="layer"
     id="layer1">
    <g
       id="g1344"
       transform="matrix(0.51769226,0,0,0.51769226,-217.86976,309.12635)"
       style="fill:#eec643;fill-opacity:1">
      <path
         id="rect12-4"
         style="fill:#eec643;fill-opacity:1;stroke:none;stroke-width:3.60002;stroke-linecap:round;stroke-linejoin:bevel;paint-order:markers stroke fill"
         d="m 435.37722,-592.231 c -7.08817,0 -12.79475,5.70658 -12.79475,12.79478 v 77.54067 41.06741 c 0,7.08817 5.70658,12.79474 12.79475,12.79474 h 318.46851 c 7.08819,0 12.79473,-5.70657 12.79473,-12.79474 v -39.90275 -78.70533 c 0,-7.0882 -5.70654,-12.79476 -12.79473,-12.79478 z m 46.37914,20.47521 v 20.67418 l -19.48409,14.05851 19.48409,14.13335 v 20.67418 l -31.20216,-22.55371 v -24.43281 z m 225.71024,0.18826 31.20216,22.5537 v 24.43282 l -31.20216,22.55371 v -20.67419 l 19.48407,-14.13373 -19.48407,-14.05812 z m -27.7954,0.0824 h 17.45771 l -12.59813,68.24105 h -17.45771 z m -180.29475,0.2424 h 14.89398 l 0.0426,28.68262 h 19.01004 l -0.0426,-28.68262 h 14.85138 v 68.12125 h -14.8088 v -28.6826 h -19.09481 v 28.6826 h -14.85138 z m 57.24144,0 h 14.85138 v 53.77975 h 31.8243 l -6.36495,14.3415 h -40.31073 z m 61.52666,0 h 40.31072 l -6.36453,14.34111 h -23.33783 c -1.4144,0 -2.12191,0.7967 -2.12191,2.39017 v 9.56116 c 0,1.59347 0.70751,2.39018 2.12191,2.39018 h 23.33783 c 4.24325,0 6.36453,2.3901 6.36453,7.17054 v 25.09714 c 0,4.78044 -2.12128,7.17095 -6.36453,7.17095 H 611.78 l 7.4257,-14.3415 h 22.27669 c 1.41438,0 2.1219,-0.7967 2.1219,-2.39019 v -9.56073 c 0,-1.59347 -0.70752,-2.39018 -2.1219,-2.39018 h -23.33784 c -4.24317,0 -6.36455,-2.39053 -6.36455,-7.17095 v -26.29245 c 0,-3.98368 2.12138,-5.97525 6.36455,-5.97525 z m -165.71362,81.77018 h 5.82877 v 17.90271 c 0.0111,0.55511 0.28867,0.83267 0.8327,0.83267 h 4.1634 v -18.73538 h 5.8288 v 18.73538 h 4.99609 v -18.73538 h 5.82879 v 23.73148 h -24.9805 c -1.65427,0 -2.48697,-0.83268 -2.49805,-2.49805 z m 30.80928,0 h 18.31906 l -2.49805,4.9961 h -9.99221 v 4.99612 h 9.15952 v 3.74706 h -9.15952 v 4.9961 h 12.49026 l -2.49805,4.9961 h -15.82101 z m 21.64978,0 h 15.821 c 1.66537,0 2.49805,0.8327 2.49805,2.49804 v 7.49418 c -0.0111,0.83267 -0.42744,1.38781 -1.24903,1.66535 0.83269,0.27756 1.24903,0.8327 1.24903,1.66537 v 7.91049 c -0.0333,1.66537 -0.86598,2.49805 -2.49805,2.49805 h -15.821 z m 34.97273,0 h 15.82099 c 1.66537,0 2.49804,0.8327 2.49804,2.49804 v 18.73539 c 0,1.66537 -0.83267,2.49805 -2.49804,2.49805 h -15.82099 z m 21.64978,0 h 18.31904 l -2.49805,4.9961 h -9.99222 v 4.99612 h 9.15953 v 3.74706 h -9.15953 v 4.9961 h 12.49027 l -2.49805,4.9961 H 561.5125 Z m 20.81709,0 h 6.66147 l 5.41244,14.6886 5.41246,-14.6886 h 6.66147 l -8.74318,23.73148 h -6.66147 z m 26.64587,0 h 18.31905 l -2.49805,4.9961 h -9.99219 v 4.99612 h 9.15952 v 3.74706 h -9.15952 v 4.9961 h 12.49024 l -2.49805,4.9961 h -15.821 z m 21.6498,0 h 5.82877 v 18.73538 h 12.49026 l -2.49805,4.9961 h -15.82098 z m 24.14742,0 h 13.32294 c 1.66537,0 2.49805,0.8327 2.49805,2.49804 v 18.73539 c 0,1.66537 -0.83268,2.49805 -2.49805,2.49805 h -13.32294 c -1.66535,0 -2.49805,-0.83268 -2.49805,-2.49805 v -18.73539 c 0,-1.66534 0.8327,-2.49804 2.49805,-2.49804 z m 19.15173,0 h 15.82099 c 1.66537,0 2.49805,0.8327 2.49805,2.49804 v 8.7432 c 0,1.66535 -0.69391,2.49804 -2.0817,2.49804 h -10.40856 v 9.9922 h -5.82878 z m 21.64978,0 h 18.31905 l -2.49805,4.9961 h -9.99222 v 4.99612 h 9.15952 v 3.74706 h -9.15952 v 4.9961 h 12.49027 l -2.49805,4.9961 h -15.821 z m 21.64977,0 h 15.82097 c 1.66541,0 2.49812,0.8327 2.49812,2.49804 v 8.7432 c 0,1.66535 -0.69391,2.49804 -2.08172,2.49804 h -2.38145 l 5.71219,9.9922 h -7.49419 l -6.24513,-10.92478 v 10.92478 h -5.82879 z m -206.50517,4.9961 v 4.99612 h 5.82878 c 0.54401,0 0.82158,-0.27757 0.83269,-0.8327 v -3.33073 c 0,-0.55512 -0.27757,-0.83269 -0.83269,-0.83269 z m 34.97273,0 v 13.73928 h 5.82877 c 0.55513,0 0.83269,-0.27756 0.83269,-0.83267 v -12.07392 c -0.0111,-0.55512 -0.28867,-0.83269 -0.83269,-0.83269 z m 113.24458,0 c -0.55511,0 -0.83268,0.27757 -0.83268,0.83269 v 12.07392 c 0,0.55511 0.27757,0.83267 0.83268,0.83267 h 4.99609 c 0.55514,0 0.8327,-0.27756 0.8327,-0.83267 v -12.07392 c -0.0111,-0.55512 -0.28867,-0.83269 -0.8327,-0.83269 z m 20.81709,0 v 4.99612 h 5.82879 c 0.55513,0 0.83268,-0.27757 0.83268,-0.8327 v -3.33073 c 0,-0.55512 -0.27755,-0.83269 -0.83268,-0.83269 z m 43.29956,0 v 7.07782 h 6.66147 v -6.24513 c 0,-0.55512 -0.27756,-0.83269 -0.83267,-0.83269 z m -212.33396,8.74318 v 4.9961 h 5.82878 c 0.54401,0 0.82158,-0.27756 0.83269,-0.83267 v -3.33074 c 0,-0.55512 -0.27757,-0.83269 -0.83269,-0.83269 z" />
    </g>
  </g>
</svg>
